<mxfile host="app.diagrams.net" modified="2023-01-16T17:41:39.013Z" agent="5.0 (Macintosh)" etag="qadKPIOa-TcebhYeJdGA" version="20.8.3" type="github">
  <diagram name="Page-1" id="c4acf3e9-155e-7222-9cf6-157b1a14988f">
    <mxGraphModel dx="1361" dy="1528" grid="1" gridSize="10" guides="1" tooltips="1" connect="1" arrows="1" fold="1" page="0" pageScale="1" pageWidth="850" pageHeight="1100" background="none" math="0" shadow="0">
      <root>
        <mxCell id="0" />
        <mxCell id="1" parent="0" />
        <mxCell id="NxVjPYoNFYyn3bsQmdru-2" value="Checking Account (account history)" style="rounded=0;whiteSpace=wrap;html=1;align=left;verticalAlign=top;dashed=1;fontStyle=1" vertex="1" parent="1">
          <mxGeometry x="30" y="-560" width="630" height="120" as="geometry" />
        </mxCell>
        <mxCell id="NxVjPYoNFYyn3bsQmdru-3" value="select * from transaction where account_number = ? and date between ? and ?" style="rounded=0;whiteSpace=wrap;html=1;" vertex="1" parent="1">
          <mxGeometry x="90" y="-520" width="450" height="40" as="geometry" />
        </mxCell>
        <mxCell id="NxVjPYoNFYyn3bsQmdru-5" value="Checking Account (Inquiry account)" style="rounded=0;whiteSpace=wrap;html=1;align=left;verticalAlign=top;dashed=1;fontStyle=1" vertex="1" parent="1">
          <mxGeometry x="30" y="-750" width="630" height="160" as="geometry" />
        </mxCell>
        <mxCell id="NxVjPYoNFYyn3bsQmdru-6" value="select * from account where account_number = ?" style="rounded=0;whiteSpace=wrap;html=1;" vertex="1" parent="1">
          <mxGeometry x="90" y="-710" width="450" height="40" as="geometry" />
        </mxCell>
        <mxCell id="NxVjPYoNFYyn3bsQmdru-7" value="select * from account where user_id = ?" style="rounded=0;whiteSpace=wrap;html=1;" vertex="1" parent="1">
          <mxGeometry x="90" y="-650" width="450" height="40" as="geometry" />
        </mxCell>
        <mxCell id="NxVjPYoNFYyn3bsQmdru-8" value="Checking Account (add account)" style="rounded=0;whiteSpace=wrap;html=1;align=left;verticalAlign=top;dashed=1;fontStyle=1" vertex="1" parent="1">
          <mxGeometry x="30" y="-420" width="630" height="120" as="geometry" />
        </mxCell>
        <mxCell id="NxVjPYoNFYyn3bsQmdru-9" value="insert into account (id, user_id, account_number, balance, type, status, createDate)" style="rounded=0;whiteSpace=wrap;html=1;" vertex="1" parent="1">
          <mxGeometry x="90" y="-380" width="450" height="40" as="geometry" />
        </mxCell>
        <mxCell id="NxVjPYoNFYyn3bsQmdru-10" value="Checking Account (book transfer)" style="rounded=0;whiteSpace=wrap;html=1;align=left;verticalAlign=top;dashed=1;fontStyle=1" vertex="1" parent="1">
          <mxGeometry x="30" y="-280" width="630" height="160" as="geometry" />
        </mxCell>
        <mxCell id="NxVjPYoNFYyn3bsQmdru-11" value="insert into transaction (id, user_id, from_account_number, to_account_number, amount, createDate)" style="rounded=0;whiteSpace=wrap;html=1;" vertex="1" parent="1">
          <mxGeometry x="90" y="-240" width="550" height="40" as="geometry" />
        </mxCell>
        <mxCell id="NxVjPYoNFYyn3bsQmdru-12" value="update account set balance = ? where account_number = :from_account_number" style="rounded=0;whiteSpace=wrap;html=1;" vertex="1" parent="1">
          <mxGeometry x="90" y="-200" width="550" height="40" as="geometry" />
        </mxCell>
      </root>
    </mxGraphModel>
  </diagram>
</mxfile>
